<svg xmlns="http://www.w3.org/2000/svg" viewBox="0 0 500 500" width="500" height="500">
  <rect width="500" height="500" fill="#FFFFFF"/>
  <g id="data-modules">
    <polygon points="195.94594594594594,56.08108108108108 200.67567567567568,60.810810810810814 195.94594594594594,65.54054054054055 191.2162162162162,60.810810810810814" fill="#000000"/>
    <polygon points="250,56.08108108108108 254.72972972972974,60.810810810810814 250,65.54054054054055 245.27027027027026,60.810810810810814" fill="#000000"/>
    <polygon points="317.5675675675676,56.08108108108108 322.29729729729735,60.810810810810814 317.5675675675676,65.54054054054055 312.83783783783787,60.810810810810814" fill="#000000"/>
    <polygon points="331.0810810810811,56.08108108108108 335.81081081081084,60.810810810810814 331.0810810810811,65.54054054054055 326.35135135135135,60.810810810810814" fill="#000000"/>
    <polygon points="168.9189189189189,69.5945945945946 173.64864864864865,74.32432432432432 168.9189189189189,79.05405405405405 164.18918918918916,74.32432432432432" fill="#000000"/>
    <polygon points="195.94594594594594,69.5945945945946 200.67567567567568,74.32432432432432 195.94594594594594,79.05405405405405 191.2162162162162,74.32432432432432" fill="#000000"/>
    <polygon points="209.45945945945945,69.5945945945946 214.1891891891892,74.32432432432432 209.45945945945945,79.05405405405405 204.7297297297297,74.32432432432432" fill="#000000"/>
    <polygon points="222.97297297297297,69.5945945945946 227.7027027027027,74.32432432432432 222.97297297297297,79.05405405405405 218.24324324324323,74.32432432432432" fill="#000000"/>
    <polygon points="250,69.5945945945946 254.72972972972974,74.32432432432432 250,79.05405405405405 245.27027027027026,74.32432432432432" fill="#000000"/>
    <polygon points="277.02702702702703,69.5945945945946 281.7567567567568,74.32432432432432 277.02702702702703,79.05405405405405 272.2972972972973,74.32432432432432" fill="#000000"/>
    <polygon points="290.5405405405406,69.5945945945946 295.2702702702703,74.32432432432432 290.5405405405406,79.05405405405405 285.81081081081084,74.32432432432432" fill="#000000"/>
    <polygon points="304.05405405405406,69.5945945945946 308.7837837837838,74.32432432432432 304.05405405405406,79.05405405405405 299.3243243243243,74.32432432432432" fill="#000000"/>
    <polygon points="331.0810810810811,69.5945945945946 335.81081081081084,74.32432432432432 331.0810810810811,79.05405405405405 326.35135135135135,74.32432432432432" fill="#000000"/>
    <polygon points="168.9189189189189,83.10810810810811 173.64864864864865,87.83783783783784 168.9189189189189,92.56756756756756 164.18918918918916,87.83783783783784" fill="#000000"/>
    <polygon points="182.43243243243242,83.10810810810811 187.16216216216216,87.83783783783784 182.43243243243242,92.56756756756756 177.70270270270268,87.83783783783784" fill="#000000"/>
    <polygon points="222.97297297297297,83.10810810810811 227.7027027027027,87.83783783783784 222.97297297297297,92.56756756756756 218.24324324324323,87.83783783783784" fill="#000000"/>
    <polygon points="250,83.10810810810811 254.72972972972974,87.83783783783784 250,92.56756756756756 245.27027027027026,87.83783783783784" fill="#000000"/>
    <polygon points="263.51351351351354,83.10810810810811 268.2432432432433,87.83783783783784 263.51351351351354,92.56756756756756 258.7837837837838,87.83783783783784" fill="#000000"/>
    <polygon points="290.5405405405406,83.10810810810811 295.2702702702703,87.83783783783784 290.5405405405406,92.56756756756756 285.81081081081084,87.83783783783784" fill="#000000"/>
    <polygon points="304.05405405405406,83.10810810810811 308.7837837837838,87.83783783783784 304.05405405405406,92.56756756756756 299.3243243243243,87.83783783783784" fill="#000000"/>
    <polygon points="317.5675675675676,83.10810810810811 322.29729729729735,87.83783783783784 317.5675675675676,92.56756756756756 312.83783783783787,87.83783783783784" fill="#000000"/>
    <polygon points="331.0810810810811,83.10810810810811 335.81081081081084,87.83783783783784 331.0810810810811,92.56756756756756 326.35135135135135,87.83783783783784" fill="#000000"/>
    <polygon points="168.9189189189189,96.62162162162163 173.64864864864865,101.35135135135135 168.9189189189189,106.08108108108108 164.18918918918916,101.35135135135135" fill="#000000"/>
    <polygon points="209.45945945945945,96.62162162162163 214.1891891891892,101.35135135135135 209.45945945945945,106.08108108108108 204.7297297297297,101.35135135135135" fill="#000000"/>
    <polygon points="236.48648648648648,96.62162162162163 241.21621621621622,101.35135135135135 236.48648648648648,106.08108108108108 231.75675675675674,101.35135135135135" fill="#000000"/>
    <polygon points="263.51351351351354,96.62162162162163 268.2432432432433,101.35135135135135 263.51351351351354,106.08108108108108 258.7837837837838,101.35135135135135" fill="#000000"/>
    <polygon points="290.5405405405406,96.62162162162163 295.2702702702703,101.35135135135135 290.5405405405406,106.08108108108108 285.81081081081084,101.35135135135135" fill="#000000"/>
    <polygon points="304.05405405405406,96.62162162162163 308.7837837837838,101.35135135135135 304.05405405405406,106.08108108108108 299.3243243243243,101.35135135135135" fill="#000000"/>
    <polygon points="168.9189189189189,110.13513513513514 173.64864864864865,114.86486486486487 168.9189189189189,119.5945945945946 164.18918918918916,114.86486486486487" fill="#000000"/>
    <polygon points="182.43243243243242,110.13513513513514 187.16216216216216,114.86486486486487 182.43243243243242,119.5945945945946 177.70270270270268,114.86486486486487" fill="#000000"/>
    <polygon points="195.94594594594594,110.13513513513514 200.67567567567568,114.86486486486487 195.94594594594594,119.5945945945946 191.2162162162162,114.86486486486487" fill="#000000"/>
    <polygon points="222.97297297297297,110.13513513513514 227.7027027027027,114.86486486486487 222.97297297297297,119.5945945945946 218.24324324324323,114.86486486486487" fill="#000000"/>
    <polygon points="236.48648648648648,110.13513513513514 241.21621621621622,114.86486486486487 236.48648648648648,119.5945945945946 231.75675675675674,114.86486486486487" fill="#000000"/>
    <polygon points="250,110.13513513513514 254.72972972972974,114.86486486486487 250,119.5945945945946 245.27027027027026,114.86486486486487" fill="#000000"/>
    <polygon points="331.0810810810811,110.13513513513514 335.81081081081084,114.86486486486487 331.0810810810811,119.5945945945946 326.35135135135135,114.86486486486487" fill="#000000"/>
    <polygon points="168.9189189189189,123.64864864864863 173.64864864864865,128.37837837837836 168.9189189189189,133.1081081081081 164.18918918918916,128.37837837837836" fill="#000000"/>
    <polygon points="182.43243243243242,123.64864864864863 187.16216216216216,128.37837837837836 182.43243243243242,133.1081081081081 177.70270270270268,128.37837837837836" fill="#000000"/>
    <polygon points="209.45945945945945,123.64864864864863 214.1891891891892,128.37837837837836 209.45945945945945,133.1081081081081 204.7297297297297,128.37837837837836" fill="#000000"/>
    <polygon points="236.48648648648648,123.64864864864863 241.21621621621622,128.37837837837836 236.48648648648648,133.1081081081081 231.75675675675674,128.37837837837836" fill="#000000"/>
    <polygon points="277.02702702702703,123.64864864864863 281.7567567567568,128.37837837837836 277.02702702702703,133.1081081081081 272.2972972972973,128.37837837837836" fill="#000000"/>
    <polygon points="290.5405405405406,123.64864864864863 295.2702702702703,128.37837837837836 290.5405405405406,133.1081081081081 285.81081081081084,128.37837837837836" fill="#000000"/>
    <polygon points="304.05405405405406,123.64864864864863 308.7837837837838,128.37837837837836 304.05405405405406,133.1081081081081 299.3243243243243,128.37837837837836" fill="#000000"/>
    <polygon points="168.9189189189189,137.16216216216213 173.64864864864865,141.89189189189187 168.9189189189189,146.6216216216216 164.18918918918916,141.89189189189187" fill="#000000"/>
    <polygon points="195.94594594594594,137.16216216216213 200.67567567567568,141.89189189189187 195.94594594594594,146.6216216216216 191.2162162162162,141.89189189189187" fill="#000000"/>
    <polygon points="222.97297297297297,137.16216216216213 227.7027027027027,141.89189189189187 222.97297297297297,146.6216216216216 218.24324324324323,141.89189189189187" fill="#000000"/>
    <polygon points="250,137.16216216216213 254.72972972972974,141.89189189189187 250,146.6216216216216 245.27027027027026,141.89189189189187" fill="#000000"/>
    <polygon points="277.02702702702703,137.16216216216213 281.7567567567568,141.89189189189187 277.02702702702703,146.6216216216216 272.2972972972973,141.89189189189187" fill="#000000"/>
    <polygon points="304.05405405405406,137.16216216216213 308.7837837837838,141.89189189189187 304.05405405405406,146.6216216216216 299.3243243243243,141.89189189189187" fill="#000000"/>
    <polygon points="331.0810810810811,137.16216216216213 335.81081081081084,141.89189189189187 331.0810810810811,146.6216216216216 326.35135135135135,141.89189189189187" fill="#000000"/>
    <polygon points="182.43243243243242,150.67567567567565 187.16216216216216,155.4054054054054 182.43243243243242,160.13513513513513 177.70270270270268,155.4054054054054" fill="#000000"/>
    <polygon points="209.45945945945945,150.67567567567565 214.1891891891892,155.4054054054054 209.45945945945945,160.13513513513513 204.7297297297297,155.4054054054054" fill="#000000"/>
    <polygon points="222.97297297297297,150.67567567567565 227.7027027027027,155.4054054054054 222.97297297297297,160.13513513513513 218.24324324324323,155.4054054054054" fill="#000000"/>
    <polygon points="250,150.67567567567565 254.72972972972974,155.4054054054054 250,160.13513513513513 245.27027027027026,155.4054054054054" fill="#000000"/>
    <polygon points="290.5405405405406,150.67567567567565 295.2702702702703,155.4054054054054 290.5405405405406,160.13513513513513 285.81081081081084,155.4054054054054" fill="#000000"/>
    <polygon points="331.0810810810811,150.67567567567565 335.81081081081084,155.4054054054054 331.0810810810811,160.13513513513513 326.35135135135135,155.4054054054054" fill="#000000"/>
    <polygon points="87.83783783783784,164.18918918918916 92.56756756756756,168.9189189189189 87.83783783783784,173.64864864864865 83.10810810810811,168.9189189189189" fill="#000000"/>
    <polygon points="128.37837837837836,164.18918918918916 133.1081081081081,168.9189189189189 128.37837837837836,173.64864864864865 123.64864864864863,168.9189189189189" fill="#000000"/>
    <polygon points="141.89189189189187,164.18918918918916 146.6216216216216,168.9189189189189 141.89189189189187,173.64864864864865 137.16216216216213,168.9189189189189" fill="#000000"/>
    <polygon points="155.4054054054054,164.18918918918916 160.13513513513513,168.9189189189189 155.4054054054054,173.64864864864865 150.67567567567565,168.9189189189189" fill="#000000"/>
    <polygon points="168.9189189189189,164.18918918918916 173.64864864864865,168.9189189189189 168.9189189189189,173.64864864864865 164.18918918918916,168.9189189189189" fill="#000000"/>
    <polygon points="182.43243243243242,164.18918918918916 187.16216216216216,168.9189189189189 182.43243243243242,173.64864864864865 177.70270270270268,168.9189189189189" fill="#000000"/>
    <polygon points="209.45945945945945,164.18918918918916 214.1891891891892,168.9189189189189 209.45945945945945,173.64864864864865 204.7297297297297,168.9189189189189" fill="#000000"/>
    <polygon points="222.97297297297297,164.18918918918916 227.7027027027027,168.9189189189189 222.97297297297297,173.64864864864865 218.24324324324323,168.9189189189189" fill="#000000"/>
    <polygon points="236.48648648648648,164.18918918918916 241.21621621621622,168.9189189189189 236.48648648648648,173.64864864864865 231.75675675675674,168.9189189189189" fill="#000000"/>
    <polygon points="250,164.18918918918916 254.72972972972974,168.9189189189189 250,173.64864864864865 245.27027027027026,168.9189189189189" fill="#000000"/>
    <polygon points="290.5405405405406,164.18918918918916 295.2702702702703,168.9189189189189 290.5405405405406,173.64864864864865 285.81081081081084,168.9189189189189" fill="#000000"/>
    <polygon points="317.5675675675676,164.18918918918916 322.29729729729735,168.9189189189189 317.5675675675676,173.64864864864865 312.83783783783787,168.9189189189189" fill="#000000"/>
    <polygon points="331.0810810810811,164.18918918918916 335.81081081081084,168.9189189189189 331.0810810810811,173.64864864864865 326.35135135135135,168.9189189189189" fill="#000000"/>
    <polygon points="344.59459459459464,164.18918918918916 349.3243243243244,168.9189189189189 344.59459459459464,173.64864864864865 339.8648648648649,168.9189189189189" fill="#000000"/>
    <polygon points="371.62162162162167,164.18918918918916 376.3513513513514,168.9189189189189 371.62162162162167,173.64864864864865 366.89189189189193,168.9189189189189" fill="#000000"/>
    <polygon points="385.13513513513516,164.18918918918916 389.8648648648649,168.9189189189189 385.13513513513516,173.64864864864865 380.4054054054054,168.9189189189189" fill="#000000"/>
    <polygon points="398.6486486486487,164.18918918918916 403.37837837837844,168.9189189189189 398.6486486486487,173.64864864864865 393.91891891891896,168.9189189189189" fill="#000000"/>
    <polygon points="412.1621621621622,164.18918918918916 416.89189189189193,168.9189189189189 412.1621621621622,173.64864864864865 407.43243243243245,168.9189189189189" fill="#000000"/>
    <polygon points="425.67567567567573,164.18918918918916 430.4054054054055,168.9189189189189 425.67567567567573,173.64864864864865 420.945945945946,168.9189189189189" fill="#000000"/>
    <polygon points="74.32432432432432,177.70270270270268 79.05405405405405,182.43243243243242 74.32432432432432,187.16216216216216 69.5945945945946,182.43243243243242" fill="#000000"/>
    <polygon points="168.9189189189189,177.70270270270268 173.64864864864865,182.43243243243242 168.9189189189189,187.16216216216216 164.18918918918916,182.43243243243242" fill="#000000"/>
    <polygon points="182.43243243243242,177.70270270270268 187.16216216216216,182.43243243243242 182.43243243243242,187.16216216216216 177.70270270270268,182.43243243243242" fill="#000000"/>
    <polygon points="209.45945945945945,177.70270270270268 214.1891891891892,182.43243243243242 209.45945945945945,187.16216216216216 204.7297297297297,182.43243243243242" fill="#000000"/>
    <polygon points="222.97297297297297,177.70270270270268 227.7027027027027,182.43243243243242 222.97297297297297,187.16216216216216 218.24324324324323,182.43243243243242" fill="#000000"/>
    <polygon points="236.48648648648648,177.70270270270268 241.21621621621622,182.43243243243242 236.48648648648648,187.16216216216216 231.75675675675674,182.43243243243242" fill="#000000"/>
    <polygon points="277.02702702702703,177.70270270270268 281.7567567567568,182.43243243243242 277.02702702702703,187.16216216216216 272.2972972972973,182.43243243243242" fill="#000000"/>
    <polygon points="290.5405405405406,177.70270270270268 295.2702702702703,182.43243243243242 290.5405405405406,187.16216216216216 285.81081081081084,182.43243243243242" fill="#000000"/>
    <polygon points="331.0810810810811,177.70270270270268 335.81081081081084,182.43243243243242 331.0810810810811,187.16216216216216 326.35135135135135,182.43243243243242" fill="#000000"/>
    <polygon points="358.1081081081081,177.70270270270268 362.83783783783787,182.43243243243242 358.1081081081081,187.16216216216216 353.3783783783784,182.43243243243242" fill="#000000"/>
    <polygon points="425.67567567567573,177.70270270270268 430.4054054054055,182.43243243243242 425.67567567567573,187.16216216216216 420.945945945946,182.43243243243242" fill="#000000"/>
    <polygon points="439.1891891891892,177.70270270270268 443.91891891891896,182.43243243243242 439.1891891891892,187.16216216216216 434.4594594594595,182.43243243243242" fill="#000000"/>
    <polygon points="74.32432432432432,191.2162162162162 79.05405405405405,195.94594594594594 74.32432432432432,200.67567567567568 69.5945945945946,195.94594594594594" fill="#000000"/>
    <polygon points="87.83783783783784,191.2162162162162 92.56756756756756,195.94594594594594 87.83783783783784,200.67567567567568 83.10810810810811,195.94594594594594" fill="#000000"/>
    <polygon points="101.35135135135135,191.2162162162162 106.08108108108108,195.94594594594594 101.35135135135135,200.67567567567568 96.62162162162163,195.94594594594594" fill="#000000"/>
    <polygon points="114.86486486486487,191.2162162162162 119.5945945945946,195.94594594594594 114.86486486486487,200.67567567567568 110.13513513513514,195.94594594594594" fill="#000000"/>
    <polygon points="128.37837837837836,191.2162162162162 133.1081081081081,195.94594594594594 128.37837837837836,200.67567567567568 123.64864864864863,195.94594594594594" fill="#000000"/>
    <polygon points="141.89189189189187,191.2162162162162 146.6216216216216,195.94594594594594 141.89189189189187,200.67567567567568 137.16216216216213,195.94594594594594" fill="#000000"/>
    <polygon points="155.4054054054054,191.2162162162162 160.13513513513513,195.94594594594594 155.4054054054054,200.67567567567568 150.67567567567565,195.94594594594594" fill="#000000"/>
    <polygon points="182.43243243243242,191.2162162162162 187.16216216216216,195.94594594594594 182.43243243243242,200.67567567567568 177.70270270270268,195.94594594594594" fill="#000000"/>
    <polygon points="195.94594594594594,191.2162162162162 200.67567567567568,195.94594594594594 195.94594594594594,200.67567567567568 191.2162162162162,195.94594594594594" fill="#000000"/>
    <polygon points="222.97297297297297,191.2162162162162 227.7027027027027,195.94594594594594 222.97297297297297,200.67567567567568 218.24324324324323,195.94594594594594" fill="#000000"/>
    <polygon points="236.48648648648648,191.2162162162162 241.21621621621622,195.94594594594594 236.48648648648648,200.67567567567568 231.75675675675674,195.94594594594594" fill="#000000"/>
    <polygon points="250,191.2162162162162 254.72972972972974,195.94594594594594 250,200.67567567567568 245.27027027027026,195.94594594594594" fill="#000000"/>
    <polygon points="263.51351351351354,191.2162162162162 268.2432432432433,195.94594594594594 263.51351351351354,200.67567567567568 258.7837837837838,195.94594594594594" fill="#000000"/>
    <polygon points="277.02702702702703,191.2162162162162 281.7567567567568,195.94594594594594 277.02702702702703,200.67567567567568 272.2972972972973,195.94594594594594" fill="#000000"/>
    <polygon points="331.0810810810811,191.2162162162162 335.81081081081084,195.94594594594594 331.0810810810811,200.67567567567568 326.35135135135135,195.94594594594594" fill="#000000"/>
    <polygon points="344.59459459459464,191.2162162162162 349.3243243243244,195.94594594594594 344.59459459459464,200.67567567567568 339.8648648648649,195.94594594594594" fill="#000000"/>
    <polygon points="385.13513513513516,191.2162162162162 389.8648648648649,195.94594594594594 385.13513513513516,200.67567567567568 380.4054054054054,195.94594594594594" fill="#000000"/>
    <polygon points="412.1621621621622,191.2162162162162 416.89189189189193,195.94594594594594 412.1621621621622,200.67567567567568 407.43243243243245,195.94594594594594" fill="#000000"/>
    <polygon points="439.1891891891892,191.2162162162162 443.91891891891896,195.94594594594594 439.1891891891892,200.67567567567568 434.4594594594595,195.94594594594594" fill="#000000"/>
    <polygon points="60.810810810810814,204.7297297297297 65.54054054054055,209.45945945945945 60.810810810810814,214.1891891891892 56.08108108108108,209.45945945945945" fill="#000000"/>
    <polygon points="87.83783783783784,204.7297297297297 92.56756756756756,209.45945945945945 87.83783783783784,214.1891891891892 83.10810810810811,209.45945945945945" fill="#000000"/>
    <polygon points="101.35135135135135,204.7297297297297 106.08108108108108,209.45945945945945 101.35135135135135,214.1891891891892 96.62162162162163,209.45945945945945" fill="#000000"/>
    <polygon points="155.4054054054054,204.7297297297297 160.13513513513513,209.45945945945945 155.4054054054054,214.1891891891892 150.67567567567565,209.45945945945945" fill="#000000"/>
    <polygon points="195.94594594594594,204.7297297297297 200.67567567567568,209.45945945945945 195.94594594594594,214.1891891891892 191.2162162162162,209.45945945945945" fill="#000000"/>
    <polygon points="236.48648648648648,204.7297297297297 241.21621621621622,209.45945945945945 236.48648648648648,214.1891891891892 231.75675675675674,209.45945945945945" fill="#000000"/>
    <polygon points="263.51351351351354,204.7297297297297 268.2432432432433,209.45945945945945 263.51351351351354,214.1891891891892 258.7837837837838,209.45945945945945" fill="#000000"/>
    <polygon points="290.5405405405406,204.7297297297297 295.2702702702703,209.45945945945945 290.5405405405406,214.1891891891892 285.81081081081084,209.45945945945945" fill="#000000"/>
    <polygon points="304.05405405405406,204.7297297297297 308.7837837837838,209.45945945945945 304.05405405405406,214.1891891891892 299.3243243243243,209.45945945945945" fill="#000000"/>
    <polygon points="317.5675675675676,204.7297297297297 322.29729729729735,209.45945945945945 317.5675675675676,214.1891891891892 312.83783783783787,209.45945945945945" fill="#000000"/>
    <polygon points="331.0810810810811,204.7297297297297 335.81081081081084,209.45945945945945 331.0810810810811,214.1891891891892 326.35135135135135,209.45945945945945" fill="#000000"/>
    <polygon points="358.1081081081081,204.7297297297297 362.83783783783787,209.45945945945945 358.1081081081081,214.1891891891892 353.3783783783784,209.45945945945945" fill="#000000"/>
    <polygon points="371.62162162162167,204.7297297297297 376.3513513513514,209.45945945945945 371.62162162162167,214.1891891891892 366.89189189189193,209.45945945945945" fill="#000000"/>
    <polygon points="60.810810810810814,218.24324324324323 65.54054054054055,222.97297297297297 60.810810810810814,227.7027027027027 56.08108108108108,222.97297297297297" fill="#000000"/>
    <polygon points="74.32432432432432,218.24324324324323 79.05405405405405,222.97297297297297 74.32432432432432,227.7027027027027 69.5945945945946,222.97297297297297" fill="#000000"/>
    <polygon points="114.86486486486487,218.24324324324323 119.5945945945946,222.97297297297297 114.86486486486487,227.7027027027027 110.13513513513514,222.97297297297297" fill="#000000"/>
    <polygon points="141.89189189189187,218.24324324324323 146.6216216216216,222.97297297297297 141.89189189189187,227.7027027027027 137.16216216216213,222.97297297297297" fill="#000000"/>
    <polygon points="358.1081081081081,218.24324324324323 362.83783783783787,222.97297297297297 358.1081081081081,227.7027027027027 353.3783783783784,222.97297297297297" fill="#000000"/>
    <polygon points="425.67567567567573,218.24324324324323 430.4054054054055,222.97297297297297 425.67567567567573,227.7027027027027 420.945945945946,222.97297297297297" fill="#000000"/>
    <polygon points="87.83783783783784,231.75675675675674 92.56756756756756,236.48648648648648 87.83783783783784,241.21621621621622 83.10810810810811,236.48648648648648" fill="#000000"/>
    <polygon points="101.35135135135135,231.75675675675674 106.08108108108108,236.48648648648648 101.35135135135135,241.21621621621622 96.62162162162163,236.48648648648648" fill="#000000"/>
    <polygon points="155.4054054054054,231.75675675675674 160.13513513513513,236.48648648648648 155.4054054054054,241.21621621621622 150.67567567567565,236.48648648648648" fill="#000000"/>
    <polygon points="358.1081081081081,231.75675675675674 362.83783783783787,236.48648648648648 358.1081081081081,241.21621621621622 353.3783783783784,236.48648648648648" fill="#000000"/>
    <polygon points="398.6486486486487,231.75675675675674 403.37837837837844,236.48648648648648 398.6486486486487,241.21621621621622 393.91891891891896,236.48648648648648" fill="#000000"/>
    <polygon points="425.67567567567573,231.75675675675674 430.4054054054055,236.48648648648648 425.67567567567573,241.21621621621622 420.945945945946,236.48648648648648" fill="#000000"/>
    <polygon points="439.1891891891892,231.75675675675674 443.91891891891896,236.48648648648648 439.1891891891892,241.21621621621622 434.4594594594595,236.48648648648648" fill="#000000"/>
    <polygon points="60.810810810810814,245.27027027027026 65.54054054054055,250 60.810810810810814,254.72972972972974 56.08108108108108,250" fill="#000000"/>
    <polygon points="74.32432432432432,245.27027027027026 79.05405405405405,250 74.32432432432432,254.72972972972974 69.5945945945946,250" fill="#000000"/>
    <polygon points="87.83783783783784,245.27027027027026 92.56756756756756,250 87.83783783783784,254.72972972972974 83.10810810810811,250" fill="#000000"/>
    <polygon points="101.35135135135135,245.27027027027026 106.08108108108108,250 101.35135135135135,254.72972972972974 96.62162162162163,250" fill="#000000"/>
    <polygon points="141.89189189189187,245.27027027027026 146.6216216216216,250 141.89189189189187,254.72972972972974 137.16216216216213,250" fill="#000000"/>
    <polygon points="398.6486486486487,245.27027027027026 403.37837837837844,250 398.6486486486487,254.72972972972974 393.91891891891896,250" fill="#000000"/>
    <polygon points="412.1621621621622,245.27027027027026 416.89189189189193,250 412.1621621621622,254.72972972972974 407.43243243243245,250" fill="#000000"/>
    <polygon points="425.67567567567573,245.27027027027026 430.4054054054055,250 425.67567567567573,254.72972972972974 420.945945945946,250" fill="#000000"/>
    <polygon points="439.1891891891892,245.27027027027026 443.91891891891896,250 439.1891891891892,254.72972972972974 434.4594594594595,250" fill="#000000"/>
    <polygon points="60.810810810810814,258.7837837837838 65.54054054054055,263.51351351351354 60.810810810810814,268.2432432432433 56.08108108108108,263.51351351351354" fill="#000000"/>
    <polygon points="101.35135135135135,258.7837837837838 106.08108108108108,263.51351351351354 101.35135135135135,268.2432432432433 96.62162162162163,263.51351351351354" fill="#000000"/>
    <polygon points="358.1081081081081,258.7837837837838 362.83783783783787,263.51351351351354 358.1081081081081,268.2432432432433 353.3783783783784,263.51351351351354" fill="#000000"/>
    <polygon points="398.6486486486487,258.7837837837838 403.37837837837844,263.51351351351354 398.6486486486487,268.2432432432433 393.91891891891896,263.51351351351354" fill="#000000"/>
    <polygon points="425.67567567567573,258.7837837837838 430.4054054054055,263.51351351351354 425.67567567567573,268.2432432432433 420.945945945946,263.51351351351354" fill="#000000"/>
    <polygon points="60.810810810810814,272.2972972972973 65.54054054054055,277.02702702702703 60.810810810810814,281.7567567567568 56.08108108108108,277.02702702702703" fill="#000000"/>
    <polygon points="87.83783783783784,272.2972972972973 92.56756756756756,277.02702702702703 87.83783783783784,281.7567567567568 83.10810810810811,277.02702702702703" fill="#000000"/>
    <polygon points="114.86486486486487,272.2972972972973 119.5945945945946,277.02702702702703 114.86486486486487,281.7567567567568 110.13513513513514,277.02702702702703" fill="#000000"/>
    <polygon points="128.37837837837836,272.2972972972973 133.1081081081081,277.02702702702703 128.37837837837836,281.7567567567568 123.64864864864863,277.02702702702703" fill="#000000"/>
    <polygon points="141.89189189189187,272.2972972972973 146.6216216216216,277.02702702702703 141.89189189189187,281.7567567567568 137.16216216216213,277.02702702702703" fill="#000000"/>
    <polygon points="358.1081081081081,272.2972972972973 362.83783783783787,277.02702702702703 358.1081081081081,281.7567567567568 353.3783783783784,277.02702702702703" fill="#000000"/>
    <polygon points="439.1891891891892,272.2972972972973 443.91891891891896,277.02702702702703 439.1891891891892,281.7567567567568 434.4594594594595,277.02702702702703" fill="#000000"/>
    <polygon points="74.32432432432432,285.81081081081084 79.05405405405405,290.5405405405406 74.32432432432432,295.2702702702703 69.5945945945946,290.5405405405406" fill="#000000"/>
    <polygon points="87.83783783783784,285.81081081081084 92.56756756756756,290.5405405405406 87.83783783783784,295.2702702702703 83.10810810810811,290.5405405405406" fill="#000000"/>
    <polygon points="114.86486486486487,285.81081081081084 119.5945945945946,290.5405405405406 114.86486486486487,295.2702702702703 110.13513513513514,290.5405405405406" fill="#000000"/>
    <polygon points="155.4054054054054,285.81081081081084 160.13513513513513,290.5405405405406 155.4054054054054,295.2702702702703 150.67567567567565,290.5405405405406" fill="#000000"/>
    <polygon points="371.62162162162167,285.81081081081084 376.3513513513514,290.5405405405406 371.62162162162167,295.2702702702703 366.89189189189193,290.5405405405406" fill="#000000"/>
    <polygon points="439.1891891891892,285.81081081081084 443.91891891891896,290.5405405405406 439.1891891891892,295.2702702702703 434.4594594594595,290.5405405405406" fill="#000000"/>
    <polygon points="60.810810810810814,299.3243243243243 65.54054054054055,304.05405405405406 60.810810810810814,308.7837837837838 56.08108108108108,304.05405405405406" fill="#000000"/>
    <polygon points="74.32432432432432,299.3243243243243 79.05405405405405,304.05405405405406 74.32432432432432,308.7837837837838 69.5945945945946,304.05405405405406" fill="#000000"/>
    <polygon points="114.86486486486487,299.3243243243243 119.5945945945946,304.05405405405406 114.86486486486487,308.7837837837838 110.13513513513514,304.05405405405406" fill="#000000"/>
    <polygon points="141.89189189189187,299.3243243243243 146.6216216216216,304.05405405405406 141.89189189189187,308.7837837837838 137.16216216216213,304.05405405405406" fill="#000000"/>
    <polygon points="168.9189189189189,299.3243243243243 173.64864864864865,304.05405405405406 168.9189189189189,308.7837837837838 164.18918918918916,304.05405405405406" fill="#000000"/>
    <polygon points="182.43243243243242,299.3243243243243 187.16216216216216,304.05405405405406 182.43243243243242,308.7837837837838 177.70270270270268,304.05405405405406" fill="#000000"/>
    <polygon points="195.94594594594594,299.3243243243243 200.67567567567568,304.05405405405406 195.94594594594594,308.7837837837838 191.2162162162162,304.05405405405406" fill="#000000"/>
    <polygon points="209.45945945945945,299.3243243243243 214.1891891891892,304.05405405405406 209.45945945945945,308.7837837837838 204.7297297297297,304.05405405405406" fill="#000000"/>
    <polygon points="236.48648648648648,299.3243243243243 241.21621621621622,304.05405405405406 236.48648648648648,308.7837837837838 231.75675675675674,304.05405405405406" fill="#000000"/>
    <polygon points="277.02702702702703,299.3243243243243 281.7567567567568,304.05405405405406 277.02702702702703,308.7837837837838 272.2972972972973,304.05405405405406" fill="#000000"/>
    <polygon points="290.5405405405406,299.3243243243243 295.2702702702703,304.05405405405406 290.5405405405406,308.7837837837838 285.81081081081084,304.05405405405406" fill="#000000"/>
    <polygon points="304.05405405405406,299.3243243243243 308.7837837837838,304.05405405405406 304.05405405405406,308.7837837837838 299.3243243243243,304.05405405405406" fill="#000000"/>
    <polygon points="317.5675675675676,299.3243243243243 322.29729729729735,304.05405405405406 317.5675675675676,308.7837837837838 312.83783783783787,304.05405405405406" fill="#000000"/>
    <polygon points="371.62162162162167,299.3243243243243 376.3513513513514,304.05405405405406 371.62162162162167,308.7837837837838 366.89189189189193,304.05405405405406" fill="#000000"/>
    <polygon points="398.6486486486487,299.3243243243243 403.37837837837844,304.05405405405406 398.6486486486487,308.7837837837838 393.91891891891896,304.05405405405406" fill="#000000"/>
    <polygon points="412.1621621621622,299.3243243243243 416.89189189189193,304.05405405405406 412.1621621621622,308.7837837837838 407.43243243243245,304.05405405405406" fill="#000000"/>
    <polygon points="439.1891891891892,299.3243243243243 443.91891891891896,304.05405405405406 439.1891891891892,308.7837837837838 434.4594594594595,304.05405405405406" fill="#000000"/>
    <polygon points="87.83783783783784,312.83783783783787 92.56756756756756,317.5675675675676 87.83783783783784,322.29729729729735 83.10810810810811,317.5675675675676" fill="#000000"/>
    <polygon points="168.9189189189189,312.83783783783787 173.64864864864865,317.5675675675676 168.9189189189189,322.29729729729735 164.18918918918916,317.5675675675676" fill="#000000"/>
    <polygon points="209.45945945945945,312.83783783783787 214.1891891891892,317.5675675675676 209.45945945945945,322.29729729729735 204.7297297297297,317.5675675675676" fill="#000000"/>
    <polygon points="222.97297297297297,312.83783783783787 227.7027027027027,317.5675675675676 222.97297297297297,322.29729729729735 218.24324324324323,317.5675675675676" fill="#000000"/>
    <polygon points="250,312.83783783783787 254.72972972972974,317.5675675675676 250,322.29729729729735 245.27027027027026,317.5675675675676" fill="#000000"/>
    <polygon points="263.51351351351354,312.83783783783787 268.2432432432433,317.5675675675676 263.51351351351354,322.29729729729735 258.7837837837838,317.5675675675676" fill="#000000"/>
    <polygon points="277.02702702702703,312.83783783783787 281.7567567567568,317.5675675675676 277.02702702702703,322.29729729729735 272.2972972972973,317.5675675675676" fill="#000000"/>
    <polygon points="290.5405405405406,312.83783783783787 295.2702702702703,317.5675675675676 290.5405405405406,322.29729729729735 285.81081081081084,317.5675675675676" fill="#000000"/>
    <polygon points="344.59459459459464,312.83783783783787 349.3243243243244,317.5675675675676 344.59459459459464,322.29729729729735 339.8648648648649,317.5675675675676" fill="#000000"/>
    <polygon points="358.1081081081081,312.83783783783787 362.83783783783787,317.5675675675676 358.1081081081081,322.29729729729735 353.3783783783784,317.5675675675676" fill="#000000"/>
    <polygon points="425.67567567567573,312.83783783783787 430.4054054054055,317.5675675675676 425.67567567567573,322.29729729729735 420.945945945946,317.5675675675676" fill="#000000"/>
    <polygon points="439.1891891891892,312.83783783783787 443.91891891891896,317.5675675675676 439.1891891891892,322.29729729729735 434.4594594594595,317.5675675675676" fill="#000000"/>
    <polygon points="60.810810810810814,326.35135135135135 65.54054054054055,331.0810810810811 60.810810810810814,335.81081081081084 56.08108108108108,331.0810810810811" fill="#000000"/>
    <polygon points="74.32432432432432,326.35135135135135 79.05405405405405,331.0810810810811 74.32432432432432,335.81081081081084 69.5945945945946,331.0810810810811" fill="#000000"/>
    <polygon points="87.83783783783784,326.35135135135135 92.56756756756756,331.0810810810811 87.83783783783784,335.81081081081084 83.10810810810811,331.0810810810811" fill="#000000"/>
    <polygon points="101.35135135135135,326.35135135135135 106.08108108108108,331.0810810810811 101.35135135135135,335.81081081081084 96.62162162162163,331.0810810810811" fill="#000000"/>
    <polygon points="114.86486486486487,326.35135135135135 119.5945945945946,331.0810810810811 114.86486486486487,335.81081081081084 110.13513513513514,331.0810810810811" fill="#000000"/>
    <polygon points="128.37837837837836,326.35135135135135 133.1081081081081,331.0810810810811 128.37837837837836,335.81081081081084 123.64864864864863,331.0810810810811" fill="#000000"/>
    <polygon points="141.89189189189187,326.35135135135135 146.6216216216216,331.0810810810811 141.89189189189187,335.81081081081084 137.16216216216213,331.0810810810811" fill="#000000"/>
    <polygon points="236.48648648648648,326.35135135135135 241.21621621621622,331.0810810810811 236.48648648648648,335.81081081081084 231.75675675675674,331.0810810810811" fill="#000000"/>
    <polygon points="263.51351351351354,326.35135135135135 268.2432432432433,331.0810810810811 263.51351351351354,335.81081081081084 258.7837837837838,331.0810810810811" fill="#000000"/>
    <polygon points="304.05405405405406,326.35135135135135 308.7837837837838,331.0810810810811 304.05405405405406,335.81081081081084 299.3243243243243,331.0810810810811" fill="#000000"/>
    <polygon points="317.5675675675676,326.35135135135135 322.29729729729735,331.0810810810811 317.5675675675676,335.81081081081084 312.83783783783787,331.0810810810811" fill="#000000"/>
    <polygon points="331.0810810810811,326.35135135135135 335.81081081081084,331.0810810810811 331.0810810810811,335.81081081081084 326.35135135135135,331.0810810810811" fill="#000000"/>
    <polygon points="344.59459459459464,326.35135135135135 349.3243243243244,331.0810810810811 344.59459459459464,335.81081081081084 339.8648648648649,331.0810810810811" fill="#000000"/>
    <polygon points="358.1081081081081,326.35135135135135 362.83783783783787,331.0810810810811 358.1081081081081,335.81081081081084 353.3783783783784,331.0810810810811" fill="#000000"/>
    <polygon points="371.62162162162167,326.35135135135135 376.3513513513514,331.0810810810811 371.62162162162167,335.81081081081084 366.89189189189193,331.0810810810811" fill="#000000"/>
    <polygon points="385.13513513513516,326.35135135135135 389.8648648648649,331.0810810810811 385.13513513513516,335.81081081081084 380.4054054054054,331.0810810810811" fill="#000000"/>
    <polygon points="398.6486486486487,326.35135135135135 403.37837837837844,331.0810810810811 398.6486486486487,335.81081081081084 393.91891891891896,331.0810810810811" fill="#000000"/>
    <polygon points="425.67567567567573,326.35135135135135 430.4054054054055,331.0810810810811 425.67567567567573,335.81081081081084 420.945945945946,331.0810810810811" fill="#000000"/>
    <polygon points="439.1891891891892,326.35135135135135 443.91891891891896,331.0810810810811 439.1891891891892,335.81081081081084 434.4594594594595,331.0810810810811" fill="#000000"/>
    <polygon points="168.9189189189189,339.8648648648649 173.64864864864865,344.59459459459464 168.9189189189189,349.3243243243244 164.18918918918916,344.59459459459464" fill="#000000"/>
    <polygon points="195.94594594594594,339.8648648648649 200.67567567567568,344.59459459459464 195.94594594594594,349.3243243243244 191.2162162162162,344.59459459459464" fill="#000000"/>
    <polygon points="250,339.8648648648649 254.72972972972974,344.59459459459464 250,349.3243243243244 245.27027027027026,344.59459459459464" fill="#000000"/>
    <polygon points="277.02702702702703,339.8648648648649 281.7567567567568,344.59459459459464 277.02702702702703,349.3243243243244 272.2972972972973,344.59459459459464" fill="#000000"/>
    <polygon points="304.05405405405406,339.8648648648649 308.7837837837838,344.59459459459464 304.05405405405406,349.3243243243244 299.3243243243243,344.59459459459464" fill="#000000"/>
    <polygon points="317.5675675675676,339.8648648648649 322.29729729729735,344.59459459459464 317.5675675675676,349.3243243243244 312.83783783783787,344.59459459459464" fill="#000000"/>
    <polygon points="331.0810810810811,339.8648648648649 335.81081081081084,344.59459459459464 331.0810810810811,349.3243243243244 326.35135135135135,344.59459459459464" fill="#000000"/>
    <polygon points="385.13513513513516,339.8648648648649 389.8648648648649,344.59459459459464 385.13513513513516,349.3243243243244 380.4054054054054,344.59459459459464" fill="#000000"/>
    <polygon points="398.6486486486487,339.8648648648649 403.37837837837844,344.59459459459464 398.6486486486487,349.3243243243244 393.91891891891896,344.59459459459464" fill="#000000"/>
    <polygon points="425.67567567567573,339.8648648648649 430.4054054054055,344.59459459459464 425.67567567567573,349.3243243243244 420.945945945946,344.59459459459464" fill="#000000"/>
    <polygon points="439.1891891891892,339.8648648648649 443.91891891891896,344.59459459459464 439.1891891891892,349.3243243243244 434.4594594594595,344.59459459459464" fill="#000000"/>
    <polygon points="168.9189189189189,353.3783783783784 173.64864864864865,358.1081081081081 168.9189189189189,362.83783783783787 164.18918918918916,358.1081081081081" fill="#000000"/>
    <polygon points="195.94594594594594,353.3783783783784 200.67567567567568,358.1081081081081 195.94594594594594,362.83783783783787 191.2162162162162,358.1081081081081" fill="#000000"/>
    <polygon points="209.45945945945945,353.3783783783784 214.1891891891892,358.1081081081081 209.45945945945945,362.83783783783787 204.7297297297297,358.1081081081081" fill="#000000"/>
    <polygon points="222.97297297297297,353.3783783783784 227.7027027027027,358.1081081081081 222.97297297297297,362.83783783783787 218.24324324324323,358.1081081081081" fill="#000000"/>
    <polygon points="236.48648648648648,353.3783783783784 241.21621621621622,358.1081081081081 236.48648648648648,362.83783783783787 231.75675675675674,358.1081081081081" fill="#000000"/>
    <polygon points="263.51351351351354,353.3783783783784 268.2432432432433,358.1081081081081 263.51351351351354,362.83783783783787 258.7837837837838,358.1081081081081" fill="#000000"/>
    <polygon points="290.5405405405406,353.3783783783784 295.2702702702703,358.1081081081081 290.5405405405406,362.83783783783787 285.81081081081084,358.1081081081081" fill="#000000"/>
    <polygon points="331.0810810810811,353.3783783783784 335.81081081081084,358.1081081081081 331.0810810810811,362.83783783783787 326.35135135135135,358.1081081081081" fill="#000000"/>
    <polygon points="358.1081081081081,353.3783783783784 362.83783783783787,358.1081081081081 358.1081081081081,362.83783783783787 353.3783783783784,358.1081081081081" fill="#000000"/>
    <polygon points="385.13513513513516,353.3783783783784 389.8648648648649,358.1081081081081 385.13513513513516,362.83783783783787 380.4054054054054,358.1081081081081" fill="#000000"/>
    <polygon points="398.6486486486487,353.3783783783784 403.37837837837844,358.1081081081081 398.6486486486487,362.83783783783787 393.91891891891896,358.1081081081081" fill="#000000"/>
    <polygon points="412.1621621621622,353.3783783783784 416.89189189189193,358.1081081081081 412.1621621621622,362.83783783783787 407.43243243243245,358.1081081081081" fill="#000000"/>
    <polygon points="439.1891891891892,353.3783783783784 443.91891891891896,358.1081081081081 439.1891891891892,362.83783783783787 434.4594594594595,358.1081081081081" fill="#000000"/>
    <polygon points="168.9189189189189,366.89189189189193 173.64864864864865,371.62162162162167 168.9189189189189,376.3513513513514 164.18918918918916,371.62162162162167" fill="#000000"/>
    <polygon points="182.43243243243242,366.89189189189193 187.16216216216216,371.62162162162167 182.43243243243242,376.3513513513514 177.70270270270268,371.62162162162167" fill="#000000"/>
    <polygon points="195.94594594594594,366.89189189189193 200.67567567567568,371.62162162162167 195.94594594594594,376.3513513513514 191.2162162162162,371.62162162162167" fill="#000000"/>
    <polygon points="222.97297297297297,366.89189189189193 227.7027027027027,371.62162162162167 222.97297297297297,376.3513513513514 218.24324324324323,371.62162162162167" fill="#000000"/>
    <polygon points="317.5675675675676,366.89189189189193 322.29729729729735,371.62162162162167 317.5675675675676,376.3513513513514 312.83783783783787,371.62162162162167" fill="#000000"/>
    <polygon points="331.0810810810811,366.89189189189193 335.81081081081084,371.62162162162167 331.0810810810811,376.3513513513514 326.35135135135135,371.62162162162167" fill="#000000"/>
    <polygon points="385.13513513513516,366.89189189189193 389.8648648648649,371.62162162162167 385.13513513513516,376.3513513513514 380.4054054054054,371.62162162162167" fill="#000000"/>
    <polygon points="398.6486486486487,366.89189189189193 403.37837837837844,371.62162162162167 398.6486486486487,376.3513513513514 393.91891891891896,371.62162162162167" fill="#000000"/>
    <polygon points="425.67567567567573,366.89189189189193 430.4054054054055,371.62162162162167 425.67567567567573,376.3513513513514 420.945945945946,371.62162162162167" fill="#000000"/>
    <polygon points="439.1891891891892,366.89189189189193 443.91891891891896,371.62162162162167 439.1891891891892,376.3513513513514 434.4594594594595,371.62162162162167" fill="#000000"/>
    <polygon points="195.94594594594594,380.4054054054054 200.67567567567568,385.13513513513516 195.94594594594594,389.8648648648649 191.2162162162162,385.13513513513516" fill="#000000"/>
    <polygon points="236.48648648648648,380.4054054054054 241.21621621621622,385.13513513513516 236.48648648648648,389.8648648648649 231.75675675675674,385.13513513513516" fill="#000000"/>
    <polygon points="250,380.4054054054054 254.72972972972974,385.13513513513516 250,389.8648648648649 245.27027027027026,385.13513513513516" fill="#000000"/>
    <polygon points="277.02702702702703,380.4054054054054 281.7567567567568,385.13513513513516 277.02702702702703,389.8648648648649 272.2972972972973,385.13513513513516" fill="#000000"/>
    <polygon points="317.5675675675676,380.4054054054054 322.29729729729735,385.13513513513516 317.5675675675676,389.8648648648649 312.83783783783787,385.13513513513516" fill="#000000"/>
    <polygon points="331.0810810810811,380.4054054054054 335.81081081081084,385.13513513513516 331.0810810810811,389.8648648648649 326.35135135135135,385.13513513513516" fill="#000000"/>
    <polygon points="344.59459459459464,380.4054054054054 349.3243243243244,385.13513513513516 344.59459459459464,389.8648648648649 339.8648648648649,385.13513513513516" fill="#000000"/>
    <polygon points="358.1081081081081,380.4054054054054 362.83783783783787,385.13513513513516 358.1081081081081,389.8648648648649 353.3783783783784,385.13513513513516" fill="#000000"/>
    <polygon points="371.62162162162167,380.4054054054054 376.3513513513514,385.13513513513516 371.62162162162167,389.8648648648649 366.89189189189193,385.13513513513516" fill="#000000"/>
    <polygon points="385.13513513513516,380.4054054054054 389.8648648648649,385.13513513513516 385.13513513513516,389.8648648648649 380.4054054054054,385.13513513513516" fill="#000000"/>
    <polygon points="425.67567567567573,380.4054054054054 430.4054054054055,385.13513513513516 425.67567567567573,389.8648648648649 420.945945945946,385.13513513513516" fill="#000000"/>
    <polygon points="439.1891891891892,380.4054054054054 443.91891891891896,385.13513513513516 439.1891891891892,389.8648648648649 434.4594594594595,385.13513513513516" fill="#000000"/>
    <polygon points="182.43243243243242,393.91891891891896 187.16216216216216,398.6486486486487 182.43243243243242,403.37837837837844 177.70270270270268,398.6486486486487" fill="#000000"/>
    <polygon points="195.94594594594594,393.91891891891896 200.67567567567568,398.6486486486487 195.94594594594594,403.37837837837844 191.2162162162162,398.6486486486487" fill="#000000"/>
    <polygon points="209.45945945945945,393.91891891891896 214.1891891891892,398.6486486486487 209.45945945945945,403.37837837837844 204.7297297297297,398.6486486486487" fill="#000000"/>
    <polygon points="250,393.91891891891896 254.72972972972974,398.6486486486487 250,403.37837837837844 245.27027027027026,398.6486486486487" fill="#000000"/>
    <polygon points="277.02702702702703,393.91891891891896 281.7567567567568,398.6486486486487 277.02702702702703,403.37837837837844 272.2972972972973,398.6486486486487" fill="#000000"/>
    <polygon points="317.5675675675676,393.91891891891896 322.29729729729735,398.6486486486487 317.5675675675676,403.37837837837844 312.83783783783787,398.6486486486487" fill="#000000"/>
    <polygon points="331.0810810810811,393.91891891891896 335.81081081081084,398.6486486486487 331.0810810810811,403.37837837837844 326.35135135135135,398.6486486486487" fill="#000000"/>
    <polygon points="371.62162162162167,393.91891891891896 376.3513513513514,398.6486486486487 371.62162162162167,403.37837837837844 366.89189189189193,398.6486486486487" fill="#000000"/>
    <polygon points="385.13513513513516,393.91891891891896 389.8648648648649,398.6486486486487 385.13513513513516,403.37837837837844 380.4054054054054,398.6486486486487" fill="#000000"/>
    <polygon points="398.6486486486487,393.91891891891896 403.37837837837844,398.6486486486487 398.6486486486487,403.37837837837844 393.91891891891896,398.6486486486487" fill="#000000"/>
    <polygon points="412.1621621621622,393.91891891891896 416.89189189189193,398.6486486486487 412.1621621621622,403.37837837837844 407.43243243243245,398.6486486486487" fill="#000000"/>
    <polygon points="425.67567567567573,393.91891891891896 430.4054054054055,398.6486486486487 425.67567567567573,403.37837837837844 420.945945945946,398.6486486486487" fill="#000000"/>
    <polygon points="168.9189189189189,407.43243243243245 173.64864864864865,412.1621621621622 168.9189189189189,416.89189189189193 164.18918918918916,412.1621621621622" fill="#000000"/>
    <polygon points="195.94594594594594,407.43243243243245 200.67567567567568,412.1621621621622 195.94594594594594,416.89189189189193 191.2162162162162,412.1621621621622" fill="#000000"/>
    <polygon points="263.51351351351354,407.43243243243245 268.2432432432433,412.1621621621622 263.51351351351354,416.89189189189193 258.7837837837838,412.1621621621622" fill="#000000"/>
    <polygon points="344.59459459459464,407.43243243243245 349.3243243243244,412.1621621621622 344.59459459459464,416.89189189189193 339.8648648648649,412.1621621621622" fill="#000000"/>
    <polygon points="385.13513513513516,407.43243243243245 389.8648648648649,412.1621621621622 385.13513513513516,416.89189189189193 380.4054054054054,412.1621621621622" fill="#000000"/>
    <polygon points="398.6486486486487,407.43243243243245 403.37837837837844,412.1621621621622 398.6486486486487,416.89189189189193 393.91891891891896,412.1621621621622" fill="#000000"/>
    <polygon points="425.67567567567573,407.43243243243245 430.4054054054055,412.1621621621622 425.67567567567573,416.89189189189193 420.945945945946,412.1621621621622" fill="#000000"/>
    <polygon points="439.1891891891892,407.43243243243245 443.91891891891896,412.1621621621622 439.1891891891892,416.89189189189193 434.4594594594595,412.1621621621622" fill="#000000"/>
    <polygon points="182.43243243243242,420.945945945946 187.16216216216216,425.67567567567573 182.43243243243242,430.4054054054055 177.70270270270268,425.67567567567573" fill="#000000"/>
    <polygon points="195.94594594594594,420.945945945946 200.67567567567568,425.67567567567573 195.94594594594594,430.4054054054055 191.2162162162162,425.67567567567573" fill="#000000"/>
    <polygon points="236.48648648648648,420.945945945946 241.21621621621622,425.67567567567573 236.48648648648648,430.4054054054055 231.75675675675674,425.67567567567573" fill="#000000"/>
    <polygon points="250,420.945945945946 254.72972972972974,425.67567567567573 250,430.4054054054055 245.27027027027026,425.67567567567573" fill="#000000"/>
    <polygon points="263.51351351351354,420.945945945946 268.2432432432433,425.67567567567573 263.51351351351354,430.4054054054055 258.7837837837838,425.67567567567573" fill="#000000"/>
    <polygon points="344.59459459459464,420.945945945946 349.3243243243244,425.67567567567573 344.59459459459464,430.4054054054055 339.8648648648649,425.67567567567573" fill="#000000"/>
    <polygon points="358.1081081081081,420.945945945946 362.83783783783787,425.67567567567573 358.1081081081081,430.4054054054055 353.3783783783784,425.67567567567573" fill="#000000"/>
    <polygon points="398.6486486486487,420.945945945946 403.37837837837844,425.67567567567573 398.6486486486487,430.4054054054055 393.91891891891896,425.67567567567573" fill="#000000"/>
    <polygon points="182.43243243243242,434.4594594594595 187.16216216216216,439.1891891891892 182.43243243243242,443.91891891891896 177.70270270270268,439.1891891891892" fill="#000000"/>
    <polygon points="236.48648648648648,434.4594594594595 241.21621621621622,439.1891891891892 236.48648648648648,443.91891891891896 231.75675675675674,439.1891891891892" fill="#000000"/>
    <polygon points="290.5405405405406,434.4594594594595 295.2702702702703,439.1891891891892 290.5405405405406,443.91891891891896 285.81081081081084,439.1891891891892" fill="#000000"/>
    <polygon points="344.59459459459464,434.4594594594595 349.3243243243244,439.1891891891892 344.59459459459464,443.91891891891896 339.8648648648649,439.1891891891892" fill="#000000"/>
    <polygon points="371.62162162162167,434.4594594594595 376.3513513513514,439.1891891891892 371.62162162162167,443.91891891891896 366.89189189189193,439.1891891891892" fill="#000000"/>
    <polygon points="385.13513513513516,434.4594594594595 389.8648648648649,439.1891891891892 385.13513513513516,443.91891891891896 380.4054054054054,439.1891891891892" fill="#000000"/>
    <polygon points="439.1891891891892,434.4594594594595 443.91891891891896,439.1891891891892 439.1891891891892,443.91891891891896 434.4594594594595,439.1891891891892" fill="#000000"/>
  </g>
  <g id="finder-patterns">
    <path d="M87.16216216216216,54.054054054054056 H115.54054054054055 Q148.64864864864865,54.054054054054056 148.64864864864865,87.16216216216216 V115.54054054054055 Q148.64864864864865,148.64864864864865 115.54054054054055,148.64864864864865 H87.16216216216216 Q54.054054054054056,148.64864864864865 54.054054054054056,115.54054054054055 V87.16216216216216 Q54.054054054054056,54.054054054054056 87.16216216216216,54.054054054054056 Z" fill="#000000"/>
    <path d="M91.21621621621621,67.56756756756756 H111.48648648648648 Q135.13513513513513,67.56756756756756 135.13513513513513,91.21621621621621 V111.48648648648648 Q135.13513513513513,135.13513513513513 111.48648648648648,135.13513513513513 H91.21621621621621 Q67.56756756756756,135.13513513513513 67.56756756756756,111.48648648648648 V91.21621621621621 Q67.56756756756756,67.56756756756756 91.21621621621621,67.56756756756756 Z" fill="#FFFFFF"/>
    <path d="M91.01351351351352,81.08108108108108 H111.68918918918918 Q121.62162162162161,81.08108108108108 121.62162162162161,91.01351351351352 V111.68918918918918 Q121.62162162162161,121.62162162162161 111.68918918918918,121.62162162162161 H91.01351351351352 Q81.08108108108108,121.62162162162161 81.08108108108108,111.68918918918918 V91.01351351351352 Q81.08108108108108,81.08108108108108 91.01351351351352,81.08108108108108 Z" fill="#000000"/>
    <path d="M384.4594594594595,54.054054054054056 H412.8378378378378 Q445.94594594594594,54.054054054054056 445.94594594594594,87.16216216216216 V115.54054054054055 Q445.94594594594594,148.64864864864865 412.8378378378378,148.64864864864865 H384.4594594594595 Q351.35135135135135,148.64864864864865 351.35135135135135,115.54054054054055 V87.16216216216216 Q351.35135135135135,54.054054054054056 384.4594594594595,54.054054054054056 Z" fill="#000000"/>
    <path d="M388.5135135135135,67.56756756756756 H408.78378378378375 Q432.4324324324324,67.56756756756756 432.4324324324324,91.21621621621621 V111.48648648648648 Q432.4324324324324,135.13513513513513 408.78378378378375,135.13513513513513 H388.5135135135135 Q364.86486486486484,135.13513513513513 364.86486486486484,111.48648648648648 V91.21621621621621 Q364.86486486486484,67.56756756756756 388.5135135135135,67.56756756756756 Z" fill="#FFFFFF"/>
    <path d="M388.31081081081084,81.08108108108108 H408.98648648648646 Q418.9189189189189,81.08108108108108 418.9189189189189,91.01351351351352 V111.68918918918918 Q418.9189189189189,121.62162162162161 408.98648648648646,121.62162162162161 H388.31081081081084 Q378.3783783783784,121.62162162162161 378.3783783783784,111.68918918918918 V91.01351351351352 Q378.3783783783784,81.08108108108108 388.31081081081084,81.08108108108108 Z" fill="#000000"/>
    <path d="M87.16216216216216,351.35135135135135 H115.54054054054055 Q148.64864864864865,351.35135135135135 148.64864864864865,384.4594594594595 V412.8378378378378 Q148.64864864864865,445.94594594594594 115.54054054054055,445.94594594594594 H87.16216216216216 Q54.054054054054056,445.94594594594594 54.054054054054056,412.8378378378378 V384.4594594594595 Q54.054054054054056,351.35135135135135 87.16216216216216,351.35135135135135 Z" fill="#000000"/>
    <path d="M91.21621621621621,364.86486486486484 H111.48648648648648 Q135.13513513513513,364.86486486486484 135.13513513513513,388.5135135135135 V408.78378378378375 Q135.13513513513513,432.4324324324324 111.48648648648648,432.4324324324324 H91.21621621621621 Q67.56756756756756,432.4324324324324 67.56756756756756,408.78378378378375 V388.5135135135135 Q67.56756756756756,364.86486486486484 91.21621621621621,364.86486486486484 Z" fill="#FFFFFF"/>
    <path d="M91.01351351351352,378.3783783783784 H111.68918918918918 Q121.62162162162161,378.3783783783784 121.62162162162161,388.31081081081084 V408.98648648648646 Q121.62162162162161,418.9189189189189 111.68918918918918,418.9189189189189 H91.01351351351352 Q81.08108108108108,418.9189189189189 81.08108108108108,408.98648648648646 V388.31081081081084 Q81.08108108108108,378.3783783783784 91.01351351351352,378.3783783783784 Z" fill="#000000"/>
  </g>
  <g id="logo">
    <rect x="137.5" y="203.25" width="225" height="93.5" rx="4" fill="#FFFFFF"/>
    <text x="250" y="242.52"
          font-family="Arial, sans-serif" font-size="42.075" font-weight="bold"
          fill="#9B5148" text-anchor="middle" dominant-baseline="middle">СУ_10</text>
    <text x="250" y="276.18"
          font-family="Arial, sans-serif" font-size="14.96" font-weight="500"
          fill="#9B5148" text-anchor="middle" dominant-baseline="middle"
          letter-spacing="1.1968">ГЕНЕРАЛЬНЫЙ ПОДРЯДЧИК</text>
  </g>
</svg>